<svg version="1.2" baseProfile="tiny-ps" xmlns="http://www.w3.org/2000/svg" viewBox="0 0 101 101" width="101" height="101">
	<title>Mail__logo-svg</title>
	<style>
		tspan { white-space:pre }
		.shp0 { fill: #ffffff } 
	</style>
	<path id="Layer" fill-rule="evenodd" class="shp0" d="M93.07 76.29C93 76.46 92.91 76.61 92.79 76.75C92.78 76.76 92.78 76.77 92.77 76.78C92.77 76.79 92.76 76.79 92.75 76.8C92.71 76.85 92.66 76.89 92.6 76.93C92.58 76.95 92.55 76.98 92.52 77C92.46 77.04 92.4 77.07 92.34 77.1C92.31 77.12 92.28 77.13 92.26 77.15C92.08 77.22 91.88 77.27 91.67 77.27L8.46 77.27C8.25 77.27 8.06 77.22 7.87 77.15C7.86 77.14 7.84 77.13 7.82 77.12C7.75 77.08 7.68 77.05 7.61 77C7.59 76.98 7.56 76.96 7.54 76.94C7.48 76.9 7.43 76.85 7.38 76.8C7.37 76.79 7.37 76.79 7.36 76.78C7.35 76.77 7.35 76.76 7.34 76.76C7.22 76.62 7.13 76.47 7.06 76.29C7.06 76.27 7.05 76.25 7.05 76.23C7 76.09 6.96 75.93 6.96 75.77L6.96 22.64C6.96 22.48 7 22.32 7.04 22.18C7.05 22.16 7.05 22.14 7.06 22.12C7.13 21.95 7.22 21.79 7.34 21.66C7.35 21.65 7.35 21.64 7.36 21.63C7.36 21.62 7.37 21.62 7.37 21.62C7.5 21.48 7.65 21.37 7.82 21.29C7.83 21.29 7.84 21.28 7.85 21.27C8.01 21.2 8.18 21.16 8.37 21.15C8.38 21.15 8.4 21.15 8.41 21.14C8.43 21.14 8.45 21.14 8.46 21.14L91.67 21.14C91.69 21.14 91.7 21.14 91.72 21.14C91.74 21.14 91.75 21.15 91.77 21.15C91.95 21.16 92.13 21.2 92.28 21.27C92.3 21.28 92.31 21.29 92.32 21.29C92.49 21.37 92.63 21.48 92.76 21.62C92.77 21.62 92.77 21.62 92.78 21.63C92.78 21.64 92.79 21.65 92.79 21.66C92.91 21.79 93.01 21.95 93.07 22.12C93.08 22.14 93.08 22.16 93.09 22.18C93.14 22.32 93.17 22.48 93.17 22.64L93.17 75.77C93.17 75.93 93.14 76.08 93.09 76.22C93.08 76.25 93.08 76.27 93.07 76.29ZM9.96 72.35L35.21 49.1L9.96 26.04L9.96 72.35ZM87.8 24.14L12.33 24.14L50.07 58.61L61.34 48.31C61.37 48.27 61.38 48.23 61.41 48.19C61.5 48.1 61.61 48.04 61.71 47.97L87.8 24.14ZM12.31 74.27L87.8 74.27L62.55 51.26L51.08 61.74C50.79 62.01 50.43 62.14 50.07 62.14C49.7 62.14 49.34 62.01 49.05 61.74L37.44 51.13L12.31 74.27ZM90.17 72.37L90.17 26.04L64.78 49.23L90.17 72.37Z" />
</svg>